<?xml version="1.0" standalone="no"?>
<!DOCTYPE svg PUBLIC "-//W3C//DTD SVG 20010904//EN"
 "http://www.w3.org/TR/2001/REC-SVG-20010904/DTD/svg10.dtd">
<svg version="1.0" xmlns="http://www.w3.org/2000/svg"
 width="256.000000pt" height="256.000000pt" viewBox="0 0 256.000000 256.000000"
 preserveAspectRatio="xMidYMid meet">
<metadata>
Created by potrace 1.11, written by Peter Selinger 2001-2013
</metadata>
<g transform="translate(0.000000,256.000000) scale(0.100000,-0.100000)"
fill="#000000" stroke="none">
<path d="M582 2380 c-85 -61 -191 -233 -245 -398 -94 -285 -64 -574 87 -831
88 -148 173 -230 239 -231 49 0 70 12 96 54 35 57 28 94 -36 188 -70 102 -128
224 -149 314 -22 97 -20 268 5 365 21 83 82 213 135 287 47 65 76 126 76 158
0 31 -33 88 -63 109 -36 25 -99 19 -145 -15z"/>
<path d="M1851 2373 c-18 -14 -40 -42 -48 -61 -19 -45 -7 -78 70 -201 74 -117
104 -189 128 -306 24 -114 24 -196 0 -313 -24 -113 -59 -191 -147 -323 -41
-63 -66 -110 -66 -129 -2 -62 82 -140 137 -126 69 17 184 149 255 291 87 175
116 313 107 504 -6 140 -27 237 -77 354 -56 129 -97 194 -171 270 -62 62 -70
67 -110 67 -32 0 -53 -7 -78 -27z"/>
<path d="M915 2128 c-71 -39 -139 -140 -186 -279 -29 -84 -33 -106 -33 -209
-1 -94 3 -129 22 -190 47 -149 120 -261 189 -292 43 -19 45 -19 80 -1 84 42
97 107 40 203 -57 95 -78 167 -78 270 0 104 22 178 82 276 50 82 56 111 33
159 -29 62 -98 91 -149 63z"/>
<path d="M1595 2126 c-37 -17 -70 -52 -85 -91 -10 -27 -7 -38 36 -119 68 -130
84 -185 84 -282 0 -100 -23 -178 -79 -274 -47 -78 -49 -97 -19 -151 26 -47 76
-73 120 -64 67 15 170 164 214 310 25 82 25 274 0 364 -32 118 -112 255 -168
289 -48 29 -69 33 -103 18z"/>
<path d="M1220 1794 c-45 -20 -68 -41 -91 -86 -36 -70 -15 -168 46 -216 l25
-20 -100 -504 c-55 -276 -105 -512 -111 -523 -21 -34 -37 -123 -26 -134 17
-17 63 -13 88 8 20 16 21 21 9 26 -13 5 -15 18 -9 80 12 124 16 135 51 135 29
0 30 -1 26 -42 -3 -41 -1 -43 25 -46 44 -5 60 4 47 27 -5 11 -7 26 -4 34 4 12
17 12 91 0 48 -7 89 -15 91 -17 6 -7 4 -235 -3 -246 -11 -18 16 -40 50 -40 48
0 54 14 39 95 -7 39 -18 103 -23 143 -10 72 -10 75 16 108 14 19 28 33 30 30
9 -9 19 -156 10 -159 -4 -1 -6 -9 -2 -18 7 -17 49 -23 75 -9 16 8 17 15 8 52
-5 24 -13 50 -17 58 -11 20 -25 86 -60 275 -16 88 -51 273 -77 412 l-47 251
36 36 c87 86 62 238 -47 287 -49 22 -99 23 -146 3z m80 -421 c0 -5 -5 -15 -10
-23 -8 -12 -10 -11 -10 8 0 12 5 22 10 22 6 0 10 -3 10 -7z m0 -145 c0 -5 -4
-8 -10 -8 -5 0 -10 10 -10 23 0 18 2 19 10 7 5 -8 10 -18 10 -22z m-22 -95 c2
-11 -4 -26 -13 -33 -13 -11 -15 -8 -15 25 0 39 22 46 28 8z m99 5 c-3 -8 -6
-5 -6 6 -1 11 2 17 5 13 3 -3 4 -12 1 -19z m-77 -47 c-10 -20 -30 -37 -30 -26
0 11 25 45 33 45 4 0 3 -9 -3 -19z m34 -73 c3 -34 4 -63 2 -66 -3 -2 -16 13
-29 35 -23 36 -24 39 -9 66 9 15 19 27 23 27 3 0 9 -28 13 -62z m-82 0 c-7 -7
-12 -8 -12 -2 0 14 12 26 19 19 2 -3 -1 -11 -7 -17z m-78 -43 c-22 -34 -26
-28 -12 18 9 29 14 34 20 23 6 -10 3 -25 -8 -41z m110 9 c9 -23 8 -24 -14 -24
-11 0 -20 2 -20 4 0 12 13 36 20 36 4 0 11 -7 14 -16z m121 -24 c3 -5 1 -10
-4 -10 -6 0 -11 5 -11 10 0 6 2 10 4 10 3 0 8 -4 11 -10z m-77 -55 c10 -21 9
-25 -6 -25 -20 0 -31 8 -51 33 -12 15 -11 17 16 17 22 0 33 -7 41 -25z m-78 0
c10 -12 10 -15 -4 -15 -9 0 -16 7 -16 15 0 8 2 15 4 15 2 0 9 -7 16 -15z m182
-60 c-5 -41 -7 -42 -22 -14 -9 15 -8 24 1 35 19 23 25 16 21 -21z m-120 -4 c5
-4 -10 -25 -32 -46 -35 -34 -42 -37 -54 -25 -9 10 -12 29 -9 53 l5 38 42 -6
c22 -4 44 -10 48 -14z m-192 -68 c-11 -17 -11 -17 -6 0 3 10 7 26 7 35 1 15 2
15 6 0 2 -10 -1 -25 -7 -35z m230 18 c5 -11 10 -38 10 -61 l0 -42 -42 7 c-24
4 -48 15 -55 24 -10 13 -6 22 25 54 41 42 47 44 62 18z m110 -17 c0 -8 -4 -12
-10 -9 -5 3 -10 10 -10 16 0 5 5 9 10 9 6 0 10 -7 10 -16z m-301 -60 c1 -20
-54 -82 -64 -72 -3 3 7 33 22 68 21 50 28 59 34 44 4 -11 8 -28 8 -40z m81 -4
c0 -5 -2 -10 -4 -10 -3 0 -8 5 -11 10 -3 6 -1 10 4 10 6 0 11 -4 11 -10z m215
-20 c3 -5 -1 -10 -9 -10 -9 0 -16 5 -16 10 0 6 4 10 9 10 6 0 13 -4 16 -10z
m-184 -22 c8 -7 32 -35 54 -62 l38 -48 -64 7 c-91 11 -113 20 -105 48 3 12 6
32 6 45 0 17 6 22 28 22 16 0 35 -6 43 -12z m87 -10 c7 -7 12 -26 12 -42 l-1
-31 -29 35 c-16 19 -30 38 -30 43 0 11 35 8 48 -5z m100 -30 c-21 -32 -36 -33
-31 -3 4 17 12 25 25 25 19 0 19 -2 6 -22z m-312 -23 c-5 -14 -46 -22 -46 -9
0 3 10 14 23 24 22 19 34 11 23 -15z"/>
</g>
</svg>
